# xmcd
#
# Track frame offsets:
#	150
#	13370
#	23541
#	34583
#	46236
#	59086
#	69536
#	87419
#	97025
#	106689
#	121973
#	135185
#	147720
#	166270
#	181209
#	193703
#	207340
#	220561
#	233287
#	247356
#	258577
#	275577
#
# Disc length: 4031 seconds
#
# Revision: 0
# Processed by: cddbd v1.5.1PL0 Copyright (c) Steve Scherf et al.
# Submitted via: EasyCDDAExtractor 4.5.0.1
#
DISCID=3e0fbd16
DTITLE=Roy Orbison - Sings Vol. 5 CD1  (1965-1973 MGM LPs)
DYEAR=2004
DGENRE=blues
TTITLE0=God Love You
TTITLE1=Beaujolais
TTITLE2=If Only For Awhile
TTITLE3=Rings Of Gold
TTITLE4=Help Me
TTITLE5=Plain Jane Country (Come To Town)
TTITLE6=Harlem Woman
TTITLE7=Cheyenne
TTITLE8=Changes
TTITLE9=It Takes All Kinds Of People
TTITLE10=Remember The Good
TTITLE11=Memphis, Tennessee
TTITLE12=Why A Woman Cries
TTITLE13=Run, Baby, Run (Back Into My Arms)
TTITLE14=Take Care Of Your Woman
TTITLE15=I'm The Man On Susie's Mind
TTITLE16=I Can't Stop Loving You
TTITLE17=Run The Engines Up High
TTITLE18=It Ain't No Big Thing
TTITLE19=I Fought The Law
TTITLE20=The Three Bells
TTITLE21=Danny Boy
EXTD=MGM SE 4835 LP "Roy Orbison Sings" © 1972\nMGM SE 4867 LP "Memphis" © 197
EXTD=3\nMGM SE 4934 LP "Milestones" © 1974\n
EXTT0=LP Roy Orbison Sings\n
EXTT1=LP Roy Orbison Sings\n
EXTT2=LP Roy Orbison Sings\n
EXTT3=LP Roy Orbison Sings\n
EXTT4=LP Roy Orbison Sings\n
EXTT5=LP Roy Orbison Sings\n
EXTT6=LP Roy Orbison Sings\n
EXTT7=LP Roy Orbison Sings\n
EXTT8=LP Roy Orbison Sings\n
EXTT9=LP Roy Orbison Sings\n
EXTT10=LP Roy Orbison Sings\n
EXTT11=LP Memphis\n
EXTT12=LP Memphis\n
EXTT13=LP Memphis\n
EXTT14=LP Memphis\n
EXTT15=LP Memphis\n
EXTT16=LP Memphis\n
EXTT17=LP Memphis\n
EXTT18=LP Memphis\n
EXTT19=LP Memphis\n
EXTT20=LP Memphis\n
EXTT21=LP Memphis\n
PLAYORDER=
